<?xml version="1.0" encoding="UTF-8"?>
<svg id="Layer_2" data-name="Layer 2" xmlns="http://www.w3.org/2000/svg" xmlns:xlink="http://www.w3.org/1999/xlink" viewBox="0 0 358.04 102.1">
  <defs>
    <style>
      .cls-1 {
        fill: #0bb1b0;
      }

      .cls-2 {
        fill: #fe4c3c;
      }

      .cls-3 {
        fill: #03beb2;
      }

      .cls-4 {
        fill: #855bbb;
      }

      .cls-5 {
        fill: #da3e40;
      }

      .cls-6 {
        fill: url(#linear-gradient);
      }
    </style>
    <linearGradient id="linear-gradient" x1="37.88" y1="50.89" x2="102.03" y2="50.89" gradientUnits="userSpaceOnUse">
      <stop offset="0" stop-color="#855bbb"/>
      <stop offset="1" stop-color="#fe4c3c"/>
    </linearGradient>
  </defs>
  <g id="Layer_2-2" data-name="Layer 2">
    <g>
      <g>
        <path class="cls-3" d="m83.72,0l-.74.75-49.08,49.76-7.09,2.98L0,102.1V12.39C0,5.55,5.55,0,12.39,0h71.33Z"/>
        <polygon class="cls-1" points="82.98 .75 57.73 40.49 33.9 50.51 82.98 .75"/>
        <path class="cls-6" d="m101.77,30.36l-17.36,28.33-6.8,11.1-18.05,29.46-1.39,2.28c-.2.33-.68.34-.89.01l-.04-.06-19.36-29.74,19.85-31.25L82.98.75l.74-.75h.32l.37.6,14.15,22.73,3.19,5.12c.37.58.37,1.32.01,1.91Z"/>
        <polygon class="cls-5" points="82.54 77.37 58.08 101.78 57.8 101.78 77.61 69.79 82.54 77.37"/>
        <path class="cls-2" d="m97.34,101.78h-39.26l24.46-24.4,15.28,23.51c.25.39-.03.89-.48.89Z"/>
      </g>
      <g>
        <path class="cls-1" d="m116.61,80.55v-35.32c0-6.61.94-11.54,2.81-14.8,3.7-6.23,9.22-9.34,16.56-9.34,5.33,0,9.86,1.83,13.6,5.48,3.74,3.66,5.61,8.15,5.61,13.48s-1.86,9.86-5.57,13.44c-3.71,3.57-8.39,5.36-14.05,5.36h-8.28v-7.38h7.26c3.67,0,6.67-1.01,9.01-3.02,2.45-2.09,3.67-4.95,3.67-8.56,0-3.21-1.1-5.92-3.3-8.14-2.2-2.22-4.91-3.32-8.12-3.32-3.72,0-6.61,1.31-8.65,3.91-1.88,2.37-2.81,5.46-2.81,9.3v38.9h-7.75Z"/>
        <path class="cls-1" d="m192.62,80.55v-19.94c0-4.02-1.11-7.33-3.34-9.91-2.34-2.77-5.48-4.16-9.42-4.16s-7.03,1.35-9.42,4.04c-2.28,2.56-3.43,5.8-3.43,9.75s1.18,7.35,3.55,9.99c2.45,2.75,5.65,4.12,9.62,4.12,3.51,0,6.85-1.22,10.03-3.67v7.71c-1.74.95-3.47,1.65-5.18,2.08-1.71.43-3.6.65-5.67.65-3.97,0-7.56-1.11-10.77-3.34-5.93-4.1-8.89-9.9-8.89-17.37,0-5.95,1.86-10.89,5.59-14.8,3.72-3.92,8.55-5.87,14.48-5.87,3.83,0,7.35.97,10.54,2.9,3.19,1.93,5.63,4.58,7.32,7.95,1.47,2.91,2.2,7.27,2.2,13.09v16.8h-7.22Z"/>
        <path class="cls-1" d="m208.28,98.33v-34.58c0-5.74.73-10.1,2.2-13.09,1.69-3.45,4.15-6.13,7.38-8.03,3.13-1.88,6.65-2.81,10.56-2.81,5.87,0,10.68,1.97,14.44,5.91,3.75,3.94,5.63,8.86,5.63,14.76s-1.82,10.4-5.46,14.4c-1.85,2.04-4,3.6-6.44,4.69s-5.06,1.63-7.83,1.63c-4.02,0-7.64-.91-10.85-2.73v-7.71c2.39,1.79,4.89,2.94,7.5,3.43.9.16,1.77.24,2.61.24,3.97,0,7.18-1.37,9.62-4.12,2.37-2.64,3.55-5.97,3.55-9.99s-1.16-7.2-3.47-9.79c-2.42-2.66-5.57-4-9.46-4s-7.05,1.39-9.42,4.16c-2.23,2.61-3.34,5.91-3.34,9.91v37.72h-7.22Z"/>
        <path class="cls-1" d="m255.13,29.17c0-1.22.42-2.25,1.26-3.08.84-.83,1.88-1.24,3.1-1.24s2.25.41,3.08,1.24c.83.83,1.24,1.86,1.24,3.08s-.41,2.27-1.24,3.14c-.83.87-1.86,1.31-3.08,1.31s-2.22-.44-3.08-1.33-1.28-1.92-1.28-3.12Zm.77,51.38v-40h7.18v40h-7.18Z"/>
        <path class="cls-1" d="m272.87,80.55v-40h6.61v5.91c2.34-4.43,6.92-6.65,13.74-6.65h1.88v6.93h-1.1c-5.03,0-8.65,1.25-10.85,3.75-2.07,2.34-3.1,6.06-3.1,11.17v18.88h-7.18Z"/>
      </g>
      <g>
        <path class="cls-4" d="m332.68,80.55v-26.79h-22.71v-7.38h22.71v-2.32c0-10.47-4.19-15.7-12.56-15.7s-12.52,5.23-12.52,15.7v36.5h-7.75v-36.66c0-6.61,1.7-11.96,5.1-16.07,3.67-4.43,8.73-6.65,15.17-6.65s11.03,2.05,14.74,6.14c3.71,4.09,5.57,9.62,5.57,16.58v36.66h-7.75Z"/>
        <path class="cls-4" d="m349.36,29.17c0-1.22.42-2.25,1.26-3.08.84-.83,1.88-1.24,3.1-1.24s2.25.41,3.08,1.24c.83.83,1.24,1.86,1.24,3.08s-.41,2.27-1.24,3.14c-.83.87-1.86,1.31-3.08,1.31s-2.22-.44-3.08-1.33c-.86-.88-1.28-1.92-1.28-3.12Zm.77,51.38v-40h7.18v40h-7.18Z"/>
      </g>
    </g>
  </g>
</svg>